<svg width="130" height="130" viewBox="0 0 130 130" fill="none" xmlns="http://www.w3.org/2000/svg">
    <circle cx="65" cy="65" r="65" fill="#F0F2FC"/>
    <path d="M70.6694 65.197C70.1487 64.7661 69.5133 64.4072 68.7633 64.1198C68.013 63.8328 67.1791 63.5635 66.2616 63.3118C65.5555 63.1326 64.9335 62.9617 64.3952 62.8001C63.8567 62.6385 63.4112 62.4593 63.0583 62.2616C62.7051 62.0642 62.4362 61.8354 62.251 61.5748C62.0657 61.3148 61.9731 60.987 61.9731 60.5919C61.9731 59.9099 62.22 59.3801 62.7143 59.0031C63.2082 58.6261 63.9585 58.4376 64.9646 58.4376C65.5293 58.4376 66.0851 58.5095 66.6323 58.653C67.1792 58.7969 67.6867 58.972 68.1545 59.1782C68.6219 59.3848 69.019 59.5956 69.3458 59.8111C69.6722 60.0265 69.8972 60.1974 70.0209 60.3228L71.6357 57.3067C70.806 56.7323 69.8355 56.2341 68.7236 55.8121C68.1157 55.5816 67.4751 55.4163 66.8039 55.3116V51.8862H63.1711V55.3698C62.9074 55.4249 62.6488 55.4906 62.3965 55.5696C61.5668 55.8302 60.8388 56.2118 60.2125 56.7143C59.5858 57.2171 59.0961 57.8453 58.7432 58.5993C58.39 59.3535 58.2138 60.2151 58.2138 61.1846C58.2138 61.921 58.3239 62.5538 58.5446 63.0831C58.7651 63.6129 59.0961 64.0795 59.5374 64.4834C59.9784 64.8873 60.5301 65.2374 61.192 65.5337C61.8539 65.8299 62.6348 66.1038 63.5348 66.3551C64.2762 66.5705 64.9467 66.7682 65.5468 66.9476C66.1466 67.1272 66.6587 67.3246 67.0823 67.5401C67.5059 67.7555 67.8322 68.0072 68.0618 68.2941C68.2911 68.5815 68.406 68.9316 68.406 69.3443C68.406 70.6551 67.3999 71.3102 65.3881 71.3102C64.6642 71.3102 63.9585 71.2206 63.2702 71.0409C62.5819 70.8617 61.9553 70.6416 61.3907 70.3812C60.8257 70.1211 60.336 69.8606 59.9215 69.6002C59.5066 69.3402 59.22 69.1289 59.0611 68.9673L57.4463 72.1719C58.5404 72.9621 59.7759 73.5722 61.1525 74.0031C61.8213 74.2124 62.4943 74.37 63.1713 74.4776V78.0724H66.8041V74.5559C67.2005 74.5046 67.5893 74.4334 67.9694 74.3399C68.8075 74.1337 69.5488 73.8059 70.1932 73.357C70.8372 72.9085 71.349 72.3202 71.7287 71.5932C72.108 70.8662 72.2979 69.9909 72.2979 68.9675C72.2979 68.0881 72.1564 67.3476 71.8743 66.7458C71.5914 66.1442 71.1898 65.6279 70.6694 65.197Z" fill="#3C6EF0"/>
    <path d="M64.9987 43.4893C53.3386 43.4893 43.8525 53.1389 43.8525 65.0001C43.8525 76.8613 53.3386 86.5109 64.9987 86.5109C76.6589 86.5109 86.1449 76.8613 86.1449 65.0001C86.1449 53.1389 76.6589 43.4893 64.9987 43.4893ZM64.9987 82.8154C55.3418 82.8154 47.4854 74.8236 47.4854 65.0001C47.4854 55.1766 55.3418 47.1847 64.9987 47.1847C74.6557 47.1847 82.5121 55.1766 82.5121 65.0001C82.5121 74.8236 74.6557 82.8154 64.9987 82.8154Z" fill="#3C6EF0"/>
    <path d="M91.6935 56.177L90.0808 46.4619L81.4936 41.9051L74.5818 35L65.0001 36.4558L55.4181 35.0001L48.5063 41.9053L39.9191 46.4621L38.3064 56.1771L34 65L38.3065 73.823L39.9192 83.5381L48.5064 88.0949L55.4182 95L64.9999 93.5442L74.5818 95L81.4936 88.0949L90.0808 83.5381L91.6935 73.823L96 65L91.6935 56.177ZM88.2008 72.6689L86.7993 81.1112L79.3338 85.0728L73.328 91.073L65.0001 89.8077L56.6721 91.073L50.6662 85.0728L43.2007 81.1112L41.7992 72.6689L38.0561 65L41.7992 57.3311L43.2007 48.8888L50.6662 44.9272L56.672 38.927L64.9999 40.1923L73.3279 38.927L79.3338 44.9272L86.7993 48.8888L88.2008 57.3311L91.9439 65L88.2008 72.6689Z" fill="#3C6EF0"/>
</svg>
