<svg width="85" height="85" viewBox="0 0 85 85" fill="none" xmlns="http://www.w3.org/2000/svg">
    <circle cx="42.5" cy="42.5" r="42.5" fill="#3C6EF0"/>
    <path d="M56.3992 24H44.5732L25 43.5732L41.4268 60L61 40.4268V28.6008L56.3992 24ZM58.8882 39.552L41.4268 57.0134L27.9866 43.5732L45.448 26.1118H55.5244L58.8882 29.4756V39.552Z" fill="white"/>
    <path d="M35.9512 47.5556L42.3227 41.1841L43.816 42.6774L37.4445 49.0489L35.9512 47.5556Z" fill="white"/>
    <path d="M50.7348 29.5854C50.1099 30.2102 49.7655 31.0413 49.7655 31.9249C49.7655 32.8088 50.1099 33.6396 50.7348 34.2644C51.3797 34.9096 52.227 35.2321 53.0743 35.2321C53.9216 35.2321 54.769 34.9096 55.4138 34.2644C56.0387 33.6396 56.3828 32.8088 56.3828 31.9249C56.3828 31.0413 56.0387 30.2102 55.4138 29.5854C54.1238 28.2953 52.0248 28.2956 50.7348 29.5854ZM53.9205 32.7711C53.4539 33.2378 52.6947 33.2378 52.2281 32.7711C52.002 32.5451 51.8776 32.2446 51.8776 31.9249C51.8776 31.6052 52.002 31.3047 52.2281 31.0787C52.4613 30.8452 52.7678 30.7288 53.0743 30.7288C53.3808 30.7288 53.6873 30.8452 53.9205 31.0787C54.1466 31.3047 54.271 31.6052 54.271 31.9249C54.271 32.2446 54.1466 32.5451 53.9205 32.7711Z" fill="white"/>
    <path d="M32.9639 44.5686L43.3177 34.2148L44.811 35.7082L34.4572 46.062L32.9639 44.5686Z" fill="white"/>
    <path d="M38.9374 50.542L47.3002 42.1794L48.7935 43.6728L40.4307 52.0353L38.9374 50.542Z" fill="white"/>
</svg>
